<?xml version="1.0" standalone="no"?>
<!DOCTYPE svg PUBLIC "-//W3C//DTD SVG 20010904//EN"
 "http://www.w3.org/TR/2001/REC-SVG-20010904/DTD/svg10.dtd">
<svg version="1.0" xmlns="http://www.w3.org/2000/svg"
 width="1024.000000pt" height="1024.000000pt" viewBox="0 0 1024.000000 1024.000000"
 preserveAspectRatio="xMidYMid meet">

<g transform="translate(0.000000,1024.000000) scale(0.100000,-0.100000)"
fill="#000000" stroke="none">
<path d="M4513 8076 c-150 -37 -289 -148 -356 -286 -91 -185 -92 -277 -14
-820 32 -217 66 -450 75 -517 10 -67 15 -120 11 -117 -4 2 -24 34 -44 72 -46
83 -123 181 -179 227 -147 120 -355 141 -533 54 -131 -63 -207 -150 -259 -295
-48 -131 -42 -255 25 -494 16 -57 29 -106 27 -107 -1 -2 -25 28 -52 65 -118
161 -247 269 -374 313 -82 28 -228 31 -308 6 -184 -57 -327 -209 -373 -397
-20 -84 -16 -212 10 -305 26 -94 79 -196 188 -366 459 -713 490 -762 547 -876
57 -114 98 -221 191 -493 139 -407 231 -600 385 -809 303 -413 695 -660 1190
-751 147 -28 433 -38 580 -21 561 65 1069 331 1431 749 162 186 258 326 478
692 139 230 265 419 355 530 33 41 144 161 246 265 102 105 206 222 233 260
95 140 126 296 88 445 -26 103 -68 175 -143 245 -118 109 -274 161 -458 152
-129 -7 -198 -25 -317 -82 -113 -55 -217 -133 -369 -276 -152 -143 -206 -188
-279 -232 -86 -53 -88 -52 -81 41 35 428 130 1940 129 2052 -1 229 -48 364
-168 486 -160 162 -415 200 -628 93 -134 -68 -255 -234 -296 -409 -11 -45 -35
-202 -52 -348 -20 -165 -35 -258 -40 -246 -7 17 -41 203 -145 809 -42 244 -78
366 -134 452 -80 121 -211 216 -338 242 -69 14 -183 13 -249 -3z m215 -280
c81 -29 135 -87 172 -184 10 -27 49 -222 85 -433 36 -211 88 -508 115 -659 27
-151 72 -405 100 -565 28 -159 56 -317 62 -350 9 -48 18 -67 48 -97 34 -34 43
-38 90 -38 66 0 111 26 133 77 9 23 35 194 62 418 140 1151 140 1155 180 1235
47 94 129 151 227 158 155 12 255 -88 280 -280 11 -86 12 -54 -77 -1358 -14
-195 -32 -470 -42 -611 l-17 -256 -135 -6 c-319 -14 -555 -128 -722 -350 -75
-100 -99 -146 -99 -194 0 -102 114 -168 207 -120 19 10 53 50 88 102 87 131
204 216 361 262 48 14 105 17 319 18 242 1 265 3 330 24 142 46 240 114 460
315 167 153 254 222 329 260 173 87 379 69 476 -41 46 -52 61 -109 49 -182
-14 -91 -53 -144 -264 -361 -284 -292 -388 -431 -645 -860 -269 -449 -426
-653 -636 -829 -489 -408 -1086 -551 -1677 -402 -502 127 -900 503 -1122 1059
-20 52 -75 205 -122 340 -152 442 -172 480 -513 1012 -354 552 -347 541 -371
595 -16 35 -24 76 -27 137 -4 80 -2 93 23 144 33 67 98 118 169 134 85 18 161
-8 243 -83 25 -23 199 -247 387 -497 187 -250 365 -478 394 -506 114 -108 243
-164 397 -171 116 -6 192 9 295 59 92 45 204 159 253 258 95 196 94 239 -28
1065 -221 1501 -218 1477 -180 1584 52 148 204 226 343 177z m-939 -1356 c84
-43 115 -92 379 -610 205 -401 215 -427 215 -550 0 -73 -5 -108 -22 -151 -45
-118 -141 -189 -265 -197 -129 -8 -241 57 -303 175 -44 83 -217 625 -304 951
-46 171 -32 268 48 344 62 59 177 77 252 38z"/>
<path d="M4199 3797 c-45 -30 -73 -87 -65 -132 10 -53 95 -171 188 -261 131
-128 286 -219 453 -264 113 -31 345 -39 470 -15 255 48 488 195 646 408 67 90
83 134 69 188 -27 100 -167 133 -235 56 -16 -18 -50 -61 -74 -95 -79 -111
-232 -218 -375 -261 -330 -101 -681 27 -874 317 -20 29 -48 60 -63 68 -42 21
-101 18 -140 -9z"/>
</g>
</svg>
